# xmcd
#
# Track frame offsets: 
#        150
#        14024
#        28986
#        41811
#        54486
#        67514
#        82439
#        97064
#        110819
#        124769
#        138269
#        152669
#        165044
#        176669
#        190694
#        204569
#        217844
#        231869
#        245136
#        258711
#        271716
#        285486
#        299061
#        313611
#        327816
#
# Disc length: 4540 seconds
#
# Revision: 1
# Processed by: cddbd v1.5.2PL0 Copyright (c) Steve Scherf et al.
# Submitted via: ExactAudioCopy v0.99pb5
#
DISCID=7611ba19
DTITLE=Various Artist - Carnegie Hall Concert, 16 January 1938
DYEAR=1947
DGENRE=Swing
TTITLE0=Benny Goodman and His Orchestra - Tattletale
TTITLE1=Benny Goodman and His Orchestra - Lonely Moments
TTITLE2=Benny Goodman Sextet - Cherokee
TTITLE3=Benny Goodman and His Orchestra - Whistle Blues
TTITLE4=Benny Goodman Quintet - Sweet Georgia Brown
TTITLE5=Benny Goodman Trio - I Can't Get Started
TTITLE6=Benny Goodman Quintet - I'll Always Be In Love With You
TTITLE7=Benny Goodman Trio - Puttin' On The Ritz
TTITLE8=Benny Goodman Quintet - Music Maestro Please
TTITLE9=Benny Goodman Duo - Mean To Me
TTITLE10=Benny Goodman Quintet - Makin' Whoopee
TTITLE11=Benny Goodman Quintet - I Know That You Know
TTITLE12=Benny Goodman and His Orchestra - Mahzel (Means Good Luck)
TTITLE13=Benny Goodman Quintet - Fine And Dandy
TTITLE14=The Hollywood Hucksters - I Apologize
TTITLE15=Benny Goodman Sextet - The Bannister Slide
TTITLE16=Benny Goodman Sextet - Hi 'Ya Sophia
TTITLE17=Benny Goodman and His Orchestra - Dizzy Fingers
TTITLE18=Benny Goodman Quintet - St. Louis Blues
TTITLE19=The Hollywood Hucksters - Them There Eyes
TTITLE20=The Hollywood Hucksters - Happy Blues
TTITLE21=Benny Goodman and His Orchestra - Chicago
TTITLE22=Benny Goodman Sextet - Love Is Just Around The Corner
TTITLE23=Benny Goodman Trio - I Never Knew
TTITLE24=Benny Goodman Sextet - Nagasaki
EXTD=YEAR: 1947
EXTT0=
EXTT1=
EXTT2=
EXTT3=
EXTT4=
EXTT5=
EXTT6=
EXTT7=
EXTT8=
EXTT9=
EXTT10=
EXTT11=
EXTT12=
EXTT13=
EXTT14=
EXTT15=
EXTT16=
EXTT17=
EXTT18=
EXTT19=
EXTT20=
EXTT21=
EXTT22=
EXTT23=
EXTT24=
PLAYORDER=
